<?xml version="1.0" encoding="utf-8"?>
<!-- Generator: Adobe Illustrator 15.1.0, SVG Export Plug-In . SVG Version: 6.00 Build 0)  -->
<!DOCTYPE svg PUBLIC "-//W3C//DTD SVG 1.1//EN" "http://www.w3.org/Graphics/SVG/1.1/DTD/svg11.dtd">
<svg version="1.1" id="Layer_1" xmlns="http://www.w3.org/2000/svg" xmlns:xlink="http://www.w3.org/1999/xlink" x="0px" y="0px"
	 width="86.1px" height="90.028px" viewBox="0 0 86.1 90.028" enable-background="new 0 0 86.1 90.028" xml:space="preserve">
<g>
	<path d="M79.187,30.132c2,4.669,3.565,9.234,4.7,13.7c1.131,4.469,1.832,8.534,2.1,12.2c0.266,3.669,0.065,6.734-0.6,9.2
		c-0.668,2.469-1.8,4.034-3.4,4.7c-2.134,0.8-4.134,0.669-6-0.4c-1.869-1.065-4.1-2.366-6.7-3.9c-2.6-1.531-5.834-2.9-9.7-4.1
		c-3.869-1.2-8.869-1.465-15-0.8c-1.869,0.269-3.3,0.9-4.3,1.9s-1.168,2.234-0.5,3.7c0.131,0.534,0.432,1.269,0.9,2.2
		c0.465,0.935,0.931,1.969,1.4,3.1c0.465,1.134,0.9,2.2,1.3,3.2s0.731,1.769,1,2.3c0.4,1.069,1.2,1.8,2.4,2.2c1.2,0.4,2,1.068,2.4,2
		c0.4,0.934,0.431,1.834,0.1,2.7c-0.334,0.869-1.1,1.5-2.3,1.9c-0.534,0.269-1.3,0.6-2.3,1c-1,0.4-2,0.8-3,1.2s-1.969,0.769-2.9,1.1
		c-0.934,0.334-1.6,0.569-2,0.7c-0.934,0.269-1.9-0.031-2.9-0.9c-1-0.866-1.834-1.965-2.5-3.3c-0.269-0.531-0.634-1.366-1.1-2.5
		c-0.469-1.131-1-2.366-1.6-3.7c-0.6-1.331-1.169-2.631-1.7-3.9c-0.534-1.266-1-2.3-1.4-3.1c-0.269-0.666-0.7-1.1-1.3-1.3
		c-0.6-0.2-1.234-0.366-1.9-0.5c-0.668-0.131-1.434-0.366-2.3-0.7c-0.869-0.331-1.7-1.1-2.5-2.3c-0.535,0.269-1.069,0.469-1.6,0.6
		c-0.4,0.269-0.8,0.434-1.2,0.5c-0.4,0.068-0.734,0.168-1,0.3c-1.2,0.4-2.434,0.469-3.7,0.2c-1.269-0.266-2.5-0.731-3.7-1.4
		c-1.2-0.666-2.3-1.531-3.3-2.6c-1-1.066-1.7-2.2-2.1-3.4c-1.069-2.266-1.269-4.9-0.6-7.9c0.666-3,2.131-5.031,4.4-6.1
		c8.932-3.6,16.066-7.2,21.4-10.8c5.331-3.6,9.431-7.031,12.3-10.3c2.866-3.266,4.831-6.332,5.9-9.2
		c1.066-2.866,1.866-5.466,2.4-7.8c0.531-2.332,1.066-4.3,1.6-5.9c0.531-1.6,1.731-2.8,3.6-3.6c1.6-0.666,3.531-0.332,5.8,1
		c2.266,1.334,4.666,3.369,7.2,6.1c2.531,2.734,5.031,6.069,7.5,10C74.952,21.367,77.187,25.601,79.187,30.132z M76.386,60.132
		c0.4-0.131,0.666-0.931,0.8-2.4c0.131-1.466,0.1-3.366-0.1-5.7c-0.2-2.331-0.669-5.065-1.4-8.2c-0.734-3.131-1.9-6.5-3.5-10.1
		c-1.6-3.6-3.3-6.866-5.1-9.8c-1.8-2.931-3.535-5.4-5.2-7.4c-1.668-2-3.1-3.5-4.3-4.5c-1.2-1-2-1.431-2.4-1.3
		c-0.4,0.134-0.7,1-0.9,2.6c-0.2,1.6-0.2,3.668,0,6.2c0.2,2.535,0.666,5.469,1.4,8.8c0.731,3.334,1.9,6.8,3.5,10.4
		c1.6,3.6,3.3,6.769,5.1,9.5c1.8,2.734,3.566,5,5.3,6.8c1.731,1.8,3.2,3.134,4.4,4C75.187,59.901,75.986,60.267,76.386,60.132z"/>
</g>
</svg>
