<?xml version="1.0" encoding="utf-8"?>
<!-- Generator: Adobe Illustrator 15.1.0, SVG Export Plug-In . SVG Version: 6.00 Build 0)  -->
<!DOCTYPE svg PUBLIC "-//W3C//DTD SVG 1.1//EN" "http://www.w3.org/Graphics/SVG/1.1/DTD/svg11.dtd">
<svg version="1.1" id="Layer_1" xmlns="http://www.w3.org/2000/svg" xmlns:xlink="http://www.w3.org/1999/xlink" x="0px" y="0px"
	 width="433px" height="238px" viewBox="0 0 433 238" enable-background="new 0 0 433 238" xml:space="preserve">
<circle fill="none" stroke="#808080" stroke-width="6" cx="65.996" cy="164.777" r="42.32"/>
<circle fill="none" stroke="#A6A6A6" stroke-width="9" cx="65.996" cy="164.119" r="55.027"/>
<circle fill="none" stroke="#A6A6A6" stroke-width="10" cx="162.694" cy="135.274" r="71.979"/>
<ellipse fill="none" stroke="#FFCC00" stroke-width="6" cx="257.96" cy="105.973" rx="77.009" ry="78.846"/>
<path fill="none" stroke="#A6A6A6" stroke-width="6" d="M363.69,106.4c32.223,0,58.343,26.119,58.343,58.342
	c0,32.225-26.12,58.346-58.343,58.346c-32.224,0-58.345-26.121-58.345-58.346C305.346,132.521,331.468,106.4,363.69,106.4z"/>
<ellipse fill="none" stroke="#DD0066" stroke-width="12" cx="257.846" cy="107.208" rx="95.15" ry="97.423"/>
<polygon fill="#FFCC00" points="95.124,189.98 95.124,206.041 127.241,206.041 111.182,222.102 131.257,222.102 155.344,198.012 
	131.257,173.924 111.182,173.924 127.241,189.98 "/>
<polygon fill="#FFCC00" points="208.992,101.992 245.126,138.125 277.24,138.125 253.153,114.036 305.346,114.036 305.346,89.947 
	253.153,89.947 277.24,65.859 245.126,65.859 "/>
<g>
	<g>
		<g>
			<path fill="#333333" d="M348.944,188.506c1.576-2.581,0.287-5.965,0.73-9.158c0.9-6.477,1.639-20.656,0.73-28.938
				c-0.07-0.669-0.129-1.573-0.73-2.198c1.196-0.898,0.321-1.609,0.73-3.298c-0.577-1.011-2.228-0.948-2.195-2.562
				c1.819,0.11,2.507-0.912,2.195-2.933c1.037-0.31,2.264-0.426,3.298-0.731c0.12-2.812,0.571-5.289,0.367-8.428
				c0.854-0.255,2.23-0.531,2.196-2.562c-0.743-1.106-1.313,2.268-2.196,1.1c-0.024-2.879,0.347-6.66-0.732-9.158
				c-0.013-1.111,1.284-0.912,2.196-1.099c1.185-2.077,1.695-12.543,1.469-16.119c-0.037-0.56-0.632-1.465-0.733-2.198
				c-0.287-2.027,0.52-3.767-1.098-5.494c1.147,0.174,1.495-0.457,1.831-1.1c0.625-6.58,1.053-13.355,6.961-14.654
				c0.397-2.581-0.002-2.606-1.102-4.03c1.016-0.453,1.301-1.629,2.197-2.197c0.558-6.526,1.211-12.955,1.832-19.416
				c0.353,4.576,1.253,10.492,1.831,15.386c0.354,3.011,0.089,5.252,2.198,6.594c-0.103,0.755-1.365,0.345-1.468,1.099
				c-0.267,1.121,0.635,1.078,0.367,2.199c5.104,1.682,6.768,8.527,6.595,14.287c0.136,1.209,1.081,1.605,1.832,2.197
				c-0.788,1.213-1.298,3.37-1.466,6.596c-0.259,4.987-0.64,12.896,0,14.652c0.623,1.71,2.274,1.824,3.297,2.563
				c-1.245,4.581-0.818,13.007-0.364,19.051c0.58,0.764,2.562,0.123,3.297,0.729c-0.311,2.021,0.376,3.045,2.197,2.934
				c-0.21,1.502-1.384,2.033-2.563,2.562c0.758,0.881-0.229,2.215,1.1,2.93c-2.104,7.672-0.479,17.408-1.1,25.277
				c-0.371,4.728,1.785,10.479,1.1,15.021 M355.537,127.691C355.052,125.877,353.808,127.121,355.537,127.691L355.537,127.691z
				 M365.429,101.316c-0.459-0.149-0.748-0.474-0.731-1.1c-1.633-0.289-2.436,0.25-3.299,0.731c0,4.274,0,8.549,0,12.821
				c1.002-0.267,0.738,0.729,1.467,0.733c1.465-1.905,2.797-3.533,1.832-6.229c0.366,0,0.438,0.297,0.731,0.367
				c0.109-0.72-0.493-0.727-0.731-1.098c2.477-0.857,0.271-5.626,0.366-6.229C365.062,101.52,365.36,101.732,365.429,101.316z
				 M368.361,109.375c0.87,0.686,0.938,4.193,2.562,5.129c-0.176-1.73,0.457-0.684,1.1-0.367c0-4.273,0-8.548,0-12.822
				c-0.706-0.516-1.475-0.967-2.562-1.099c0.365,1.558,0.358,1.563-1.467,1.466C369.253,104.633,367.347,106.32,368.361,109.375z
				 M358.836,112.672c-0.027,0.514,0.082,1.402,0.365,0.732c0-0.609,0-1.223,0-1.832c-0.354-3.713,1.311-7.84-0.365-10.623
				C357.813,105.342,359.142,108.16,358.836,112.672z M374.222,113.039c1.182-0.359,0.704-2.773,0.73-4.764
				c0.034-2.34-0.023-4.737,0-6.594c-0.074-0.412-0.403-0.57-0.73-0.732C374.222,104.98,374.222,109.01,374.222,113.039z
				 M372.023,115.97c0.1-0.499-0.227-1.43-0.366-0.733C371.557,115.734,371.885,116.667,372.023,115.97z M358.469,124.395
				c-0.748-0.473-0.666-1.774-2.197-1.465c-0.824,0.365,0.792,1.998-0.366,2.564c0.104-0.835-0.089-1.377-0.73-1.467
				c-0.011,0.863,0.631,1.078,0.364,2.197c0.911-0.039,1.137-0.686,1.831,0c-0.441-1.123-0.938-1.791,0-2.931
				C357.585,123.622,358.139,125.386,358.469,124.395z M358.102,127.326c-0.279-0.821,1.691-1.167,0.366-1.831
				C358.476,126.043,357.108,126.993,358.102,127.326z M357.737,129.158c0.366,0,0.731,0,1.101,0c0-0.367,0-0.732,0-1.1
				c-0.243,0-0.488,0-0.732,0C358.084,128.525,357.633,128.566,357.737,129.158z M356.271,130.624
				c0.101-0.499-0.228-1.433-0.366-0.733C355.805,130.389,356.132,131.318,356.271,130.624z M358.469,132.089
				c0.764-0.729,0.012-1.565-0.731-1.832C357.682,131.166,357.669,132.035,358.469,132.089z M354.438,132.455
				c0.947,0.33,1.798-2.069,0.366-1.831C354.954,131.507,354.137,131.42,354.438,132.455z M356.637,135.385
				c0.547-0.591-0.314-1.837,0-3.296C354.823,132.63,354.305,135.208,356.637,135.385z"/>
		</g>
	</g>
	<g>
		<g>
			<path fill="#333333" d="M155.344,191.08v33.658v2.203h256.778V192.08c-4.271,0-8.312-2.119-12.584-2.119
				c-0.806-1.891-0.738-4.652-0.675-7.417c-3.912,0.092-8.189,0.55-8.767-2.698c-3.088-1.062-1.249,2.801-3.372,2.698
				c-3.821,0-7.646,0-11.466,0c-0.999-0.8-1.049-2.549-2.022-3.372c-10.349,1.195-14.833-3.368-24.277-1.35
				c-2.529,0.507-1.471-2.575-3.372-2.697c-2.53-0.507-1.471,2.577-3.37,2.697c-4.946,0-9.894,0-14.838,0
				c-0.733-22.867-2.372-44.834-4.723-66.09c-3.993,23.858-5.562,43.297-4.72,66.765c-2.067,1.304-3.385,3.358-5.396,4.721
				c-5.816-3.849-16.834-2.497-26.301-2.696c-3.671,1.5-3.342,7-6.744,8.77c-2.778-1.04-1.666-5.979-3.368-8.096
				c-1.141,3.039-1.593,10.445-0.677,16.188c-8.067,2.66-15.786,0.341-26.303,1.349c-1.557-2.486-2.187-5.903-2.695-9.439
				c-1.633,2.416-1.451,6.645-2.696,9.439c-2.29-0.185-5.468,0.521-6.745-0.674c-0.08-15.502-0.172-25.604,0-39.791
				c-7.344-0.973-13.388,0.202-24.952,0c-1.515,0.284-0.019,3.58-1.349,4.047c-2.923,0-5.848,0-8.77,0
				c-1.569,8.32-0.228,19.56-0.676,29c-8.37,5.66,3.542-3.655-10.181-2.823c-4.859-10.654-1.702-19.099-2.023-30.351
				c-0.109-3.919-1.263-9.223-0.675-14.837c3.048-1.446,6.779-2.213,8.767-4.721c-1.149-3.349-6.334-2.659-8.767-4.724
				c0-2.021,0-4.045,0-6.067c3.255-3.037,8.332-4.256,11.465-7.417c-0.05-5.796-8.68-3.012-12.14-5.396
				c-0.654-2.675,1.953-2.094,3.371-2.695c-0.389-1.639-4.362,0.314-4.045-2.023c-0.451-2.924,3.129-1.816,5.395-2.023
				c0.331-3.254-6.45,0.604-5.395-3.372c1.835-0.591,5.413-1.671,6.74-0.677c-1.293-3.461-6.979,1.623-6.74-3.371
				c0.633-3.349,3.643-0.31,5.395-2.022c-0.91-1.562-5.072,0.127-5.395-2.022c0.982-5.146,1.114-4.824,0-10.115
				c-0.387-2.184,0.203-3.393,1.349-4.047c-3.675-7.537-1.754-15.023-2.698-23.604c-3.378,5.99,0.613,20.09-4.046,22.929
				c1.945,1.653,2.979,7.639-1.349,8.094c0.212,1.586,3.194,0.398,2.698,2.695c-0.783,0.566-1.812,0.893-3.372,0.676
				c0.835,1.414,4.798-0.301,3.372,3.373c0.541,2.562-3.188,0.855-4.723,1.35c0.042,2.654,4.938,0.459,4.723,3.371
				c-0.214,2.263-3.06,1.892-5.396,2.023c0.58,1.668,4.694-0.199,5.396,1.35c0.438,2.688-2.564,1.933-4.723,2.021
				c-0.055,2.526,4.773,0.172,4.723,2.698c0.392,2.415-1.997,2.05-4.049,2.021c0.269,2.434,5.228,0.17,4.049,4.047
				c-4.806,0.593-9.519,1.274-12.143,4.047c3.08,5.265,14.533,4.9,10.792,14.836c-3.348,1.372-8.333,1.107-9.438,4.721
				c1.244,3.25,6.722,2.271,9.438,4.047c0.139,13.584-2.698,45.187-2.698,45.187c-6.586,1.507-16.82-0.64-21.58,2.696
				L155.344,191.08z"/>
		</g>
	</g>
	<g>
		<path fill="#333333" d="M164.382,180.327c-19.953,2.079-39.907,4.153-59.86,6.217c-22.435,2.317-44.994,4.115-67.292,7.549
			c-2.269,0.351-26.908,3.585-25.146,8.058c2.015,5.113,12.8,6.754,17.231,7.8c11.262,2.649,22.78,4.198,34.232,5.75
			c-8.083-1.368-16.146-2.954-24.112-4.888c-1.562-0.381-20.289-5.056-16.195-8.065c3.506-2.579,8.987-3.197,13.109-4.015
			c9.885-1.955,19.911-3.229,29.909-4.437c32.61-3.938,65.382-6.61,98.122-9.217L164.382,180.327L164.382,180.327z"/>
		<path fill="#333333" d="M97.864,158.684c-1.76,8.526-3.52,17.059-5.274,25.584c-0.526,2.551-1.187,5.646-0.151,8.101
			c0.568,1.345,1.438,2.622,1.311,4.094c-0.22,2.46-0.434,4.921-0.648,7.382c-0.243,2.768-0.483,5.532-0.729,8.301
			c-0.053,0.586,0.104,3.271-0.42,3.631c-1.776,1.213-3.762,1.748-3.762,3.975c0,1.902,0.403,1.436,2.207,1.557
			c8.883,0.596,17.77,1.191,26.649,1.787c-3.17-1.988-6.338-3.979-9.507-5.968c-1.991-1.249-7.093-3.015-6.987-5.608
			c0.168-4.228,0.479-8.478,0.479-12.707c0-1.703,2.853-2.555,2.804-4.19c-0.049-1.554-0.068-3.104-0.151-4.649
			c-0.47-8.898-0.974-17.81-1.146-26.72c-0.066-3.466,0.548-6.758,0.805-10.224c0.297-4,0.654-8.057,0.576-12.066
			c-0.062-2.936-3.098-3.863-4.818-1.451C99.095,139.502,98.686,154.697,97.864,158.684
			C97.864,158.684,98.686,154.697,97.864,158.684z"/>
		<path fill="#333333" d="M178.283,178.92c-24.846-10.902-49.685-21.816-74.523-32.727c0,3.189,0.734,2.795,3.548,4.076
			c3.989,1.815,7.981,3.638,11.97,5.455c10.635,4.846,21.269,9.688,31.897,14.534c3.628,1.653,7.257,3.31,10.886,4.961
			c2.396,1.093,2.791,1.224,2.302,4.341c-0.702,4.49-1.405,8.981-2.108,13.476c-0.54,3.444-0.456,7.907-2.12,11.028
			c-1.562,2.931-1.068,6.58-1.208,9.854c-0.025,0.55-0.572,3.663-0.175,4.062c0.332,0.334,2.475,0.127,2.92,0.15
			c4.479,0.232,8.964,0.463,13.444,0.695c3.179,0.164,3.996,1.137,4.171-2.082c0.228-4.241,0.456-8.482,0.684-12.727
			c0.076-1.398,0.26-1.314-1.162-1.563c-1.905-0.333-3.809-0.666-5.713-1c-0.468-0.081,1.176-16.951,1.317-18.843
			c1.877,0.293,3.753,0.586,5.632,0.879C180.043,181.279,181.108,178.588,178.283,178.92L178.283,178.92z"/>
		<path fill="#333333" d="M54.744,195.26c-0.271,4.275-0.542,8.553-0.812,12.828c-0.116,1.846-0.232,3.691-0.352,5.538
			c-0.024,0.396,4.024,0.935,4.639,1.053c0.595-6.711,1.189-13.421,1.785-20.132c-6.56,1.04-13.113,2.079-19.669,3.118
			c-1.997,0.315-4.142-0.243-4.142,1.944c0,3.398,0,6.803,0,10.203c-2.222-0.629-3.862-0.25-3.862-2.65c0-2.514,0-5.023,0-7.535"/>
		<path fill="#333333" d="M22.711,208.175c0,2.953,0,5.906,0,8.859c0,1.468,0.464,2.007-1.025,2.007c-1.938,0-3.88,0-5.817,0
			c-0.646,0-2.117,0.412-2.117-0.395c0-1.529,0-3.062,0-4.595c0-3.321,0-6.645,0-9.967"/>
		<path fill="#333333" d="M16.741,207.955c0.439,0.188,2.465,0.761,2.465,1.207c0,0.501,0.207,3.369-0.186,3.369
			c-1.396,0-2.279,0.539-2.279-0.967c0-1.438,0-2.877,0-4.312"/>
		<path fill="#333333" d="M98.662,150.064c-11.069,7.742-22.142,15.483-33.207,23.227c-7.237,5.062-14.477,10.124-21.712,15.186
			c-3.264,2.282-6.562,5.611-10.552,6.27c21.867-15.773,43.734-31.551,65.604-47.322C98.752,148.302,98.707,149.184,98.662,150.064
			L98.662,150.064z"/>
	</g>
</g>
<rect x="13.749" y="212.625" fill="#333333" width="398.373" height="14.434"/>
</svg>
